inDegrees=yes
name=ik_lifting_orientations
DataType=double
version=3
OpenSimVersion=4.5-2024-01-10-34fd6af
endheader
time	pelvis_tilt	pelvis_list	pelvis_rotation	pelvis_tx	pelvis_ty	pelvis_tz	hip_flexion_r	hip_adduction_r	hip_rotation_r	knee_angle_r	knee_angle_r_beta	ankle_angle_r	subtalar_angle_r	mtp_angle_r	hip_flexion_l	hip_adduction_l	hip_rotation_l	knee_angle_l	knee_angle_l_beta	ankle_angle_l	subtalar_angle_l	mtp_angle_l	lumbar_extension	lumbar_bending	lumbar_rotation	arm_flex_r	arm_add_r	arm_rot_r	elbow_flex_r	pro_sup_r	wrist_flex_r	wrist_dev_r	arm_flex_l	arm_add_l	arm_rot_l	elbow_flex_l	pro_sup_l	wrist_flex_l	wrist_dev_l
0.62	-3.441503621841826	14.26764591907691	-79.30655133264227	0	0.9399999998679526	0	43.59939046111151	-10.51920938276643	0	58.13807462433109	1.014700822964743	-5.231098241467963	0	0	43.59939046111151	-10.51920938276643	0	58.13807462433109	1.014700822964743	-5.231098241467963	0	0	35.62437159052038	1.847369909656181	-10.395979041011	-23.42515771935161	-6.994512855553101	2.938986515538955	2.847105351786321	4.997294104707711	0	0	0	-10.17252475170472	0	85.05519536938688	4.997294104707711	0	0
0.63	-4.031366514914941	15.49032658595674	-78.19008939878741	0	0.9399999998679526	0	43.60004237880212	-10.51837056935354	0	58.13875869332497	1.014712762220997	-5.230611920881621	0	0	43.60004237880212	-10.51837056935354	0	58.13875869332497	1.014712762220997	-5.230611920881621	0	0	38.79037520554007	1.423060630435106	-11.54610665810069	-25.35657538289342	-6.728021003977496	2.979820672276638	2.779128404075689	4.995668327729056	0	0	0	-10.17368118284758	0	85.05680391580938	4.995668327729056	0	0
0.64	-4.491986467165737	16.73042124414146	-77.50231342829632	0	0.9399999998679526	0	43.60074052693746	-10.51746921534838	0	58.13948869230232	1.014725503106688	-5.23008913756054	0	0	43.60074052693746	-10.51746921534838	0	58.13948869230232	1.014725503106688	-5.23008913756054	0	0	41.72498883171102	1.086026237665236	-12.31642913962232	-27.03351486086168	-6.344234964235672	3.164651515631447	2.677722579636806	4.993929421981421	0	0	0	-10.17491670774432	0	85.0585243912941	4.993929421981421	0	0
0.65	-5.102533580013705	18.06083075316084	-76.4975149634073	0	0.9399999998679526	0	43.60143714306525	-10.51657167610893	0	58.14021766289099	1.01473822604361	-5.229568916683365	0	0	43.60143714306525	-10.51657167610893	0	58.14021766289099	1.01473822604361	-5.229568916683365	0	0	44.73658291092163	0.5734500966104094	-13.25761047458105	-28.73575367370142	-5.919821412655527	3.367149009704166	2.606047243517247	4.992193626999849	0	0	0	-10.17615041731436	0	85.06024178925264	4.992193626999849	0	0
0.66	-5.87783017678206	19.23879269695059	-75.28905407109268	0	0.9399999998679526	0	43.6019604960839	-10.51590115739686	0	58.14076739287869	1.014747820641893	-5.229180792020682	0	0	43.6019604960839	-10.51590115739686	0	58.14076739287869	1.014747820641893	-5.229180792020682	0	0	47.51004013110707	-0.04736414472612894	-14.43593997708527	-30.349446867934	-5.472073304050649	3.610880354046606	2.468612181524212	4.990887564740652	0	0	0	-10.17707990490401	0	85.06153400976967	4.990887564740652	0	0
0.67	-6.84304600433044	20.42113366914237	-73.69464045186558	0	0.9399999998679526	0	43.6027163417674	-10.5149424678023	0	58.14156693476863	1.01476177528038	-5.228627108568107	0	0	43.6027163417674	-10.5149424678023	0	58.14156693476863	1.01476177528038	-5.228627108568107	0	0	50.23965132772182	-0.9606965093511328	-15.92619177480933	-32.21963597150205	-5.960768636843582	3.985370760959043	3.043178349303418	4.988996014157464	0	0	0	-10.17842928077157	0	85.06340551541679	4.988996014157464	0	0
0.68	-7.949780801692757	21.58916789255693	-71.8852323441992	0	0.9399999998679526	0	43.60325198572571	-10.51428237111386	0	58.14214601140768	1.014771882074353	-5.228248082022411	0	0	43.60325198572571	-10.51428237111386	0	58.14214601140768	1.014771882074353	-5.228248082022411	0	0	53.09884954076532	-2.221538364675829	-17.69527389640986	-34.14177741350688	-6.398341835302287	4.389437200745526	3.400910075601048	4.987644132628867	0	0	0	-10.17940070495668	0	85.06474307489877	4.987644132628867	0	0
0.6899999999999999	-9.10443293519919	22.7644621639031	-70.15551783634514	0	0.9399999998679526	0	43.60371323535504	-10.51371909189577	0	58.14264781887385	1.014780640266848	-5.227925286264819	0	0	43.60371323535504	-10.51371909189577	0	58.14264781887385	1.014780640266848	-5.227925286264819	0	0	55.92458528361925	-3.491763564995679	-19.31069843698169	-36.10249907974112	-6.871902217346368	4.733298316957719	3.838589969560257	4.986477066769059	0	0	0	-10.18024111598553	0	85.06589777769942	4.986477066769059	0	0
0.7	-10.5854735372589	23.96165394793946	-67.98826886291062	0	0.9399999998679526	0	43.60424208106573	-10.51306499782193	0	58.14321732023497	1.014790579940694	-5.227549575428213	0	0	43.60424208106573	-10.51306499782193	0	58.14321732023497	1.014790579940694	-5.227549575428213	0	0	58.84811694322855	-5.214475016119605	-21.1942517473269	-37.96246926585248	-7.16492308893262	5.192226150695843	4.014024417984528	4.985144150544609	0	0	0	-10.18119775994638	0	85.06721657220025	4.985144150544609	0	0
0.71	-10.8986012958503	25.39746945666611	-67.41570676195053	0	0.9399999998679526	0	43.60471373525205	-10.51246542311347	0	58.14371414637804	1.014799251192701	-5.227203414926211	0	0	43.60471373525205	-10.51246542311347	0	58.14371414637804	1.014799251192701	-5.227203414926211	0	0	61.45947284614182	-6.688710234274366	-21.54033945811674	-39.07769205768299	-7.200382306478793	5.717432854304349	3.652234375763821	4.983965326814576	0	0	0	-10.182037679469	0	85.06838290334908	4.983965326814576	0	0
0.72	-11.01936619653261	26.71474990983118	-67.17884105112076	0	0.9399999998679526	0	43.60534254251107	-10.51166019005837	0	58.14437214738396	1.014810735476736	-5.226737975962524	0	0	43.60534254251107	-10.51166019005837	0	58.14437214738396	1.014810735476736	-5.226737975962524	0	0	63.76533679395175	-7.901427294558591	-21.55697485554188	-40.27209969554483	-7.254873993807918	5.981343021233157	3.562487357739395	4.982397540644882	0	0	0	-10.18315234331847	0	85.06993407360602	4.982397540644882	0	0
0.73	-10.9025723780654	28.00932212598058	-67.12587509139117	0	0.9399999998679526	0	43.60602777085693	-10.51078480011833	0	58.14508996567047	1.014823263769266	-5.226232354913029	0	0	43.60602777085693	-10.51078480011833	0	58.14508996567047	1.014823263769266	-5.226232354913029	0	0	65.52389831863587	-8.642527031562098	-21.16409522177718	-40.86865978207692	-7.344310608397453	5.878677596097004	3.42039878628006	4.980688202344798	0	0	0	-10.18436815078215	0	85.07162529610282	4.980688202344798	0	0
0.74	-10.85479623358398	29.03020457584249	-67.04418474797608	0	0.9399999998679526	0	43.60650750809043	-10.51017995931682	0	58.14559726092547	1.014832117741746	-5.22588401266068	0	0	43.60650750809043	-10.51017995931682	0	58.14559726092547	1.014832117741746	-5.22588401266068	0	0	67.52934640415215	-9.074415516001105	-20.45255555783067	-41.8942329903879	-7.230012913224798	5.108694308602542	3.067195638076489	4.979487034670467	0	0	0	-10.18522521082744	0	85.07281373517688	4.979487034670467	0	0
0.75	-10.83600575264537	30.04755808317365	-67.14271192662221	0	0.9399999998679526	0	43.60701088559345	-10.50954356285767	0	58.14612810920404	1.014841382792036	-5.225517366178631	0	0	43.60701088559345	-10.50954356285767	0	58.14612810920404	1.014841382792036	-5.225517366178631	0	0	69.74407883155247	-9.308280371651986	-19.6407374926431	-43.34571744945334	-7.223050940841725	4.235466702750411	3.037634925087904	4.978227895920688	0	0	0	-10.18612286353737	0	85.07405953060758	4.978227895920688	0	0
0.76	-10.9257474798137	31.04326995279824	-67.30895957302177	0	0.9399999998679526	0	43.60763168426059	-10.50875478255831	0	58.14677988993694	1.014852758511826	-5.225062557892052	0	0	43.60763168426059	-10.50875478255831	0	58.14677988993694	1.014852758511826	-5.225062557892052	0	0	71.87060529384368	-9.435349599404418	-18.99127099514199	-44.72303098778396	-7.22808050648423	3.585286099122458	3.072854892195704	4.976677560153525	0	0	0	-10.18722654496215	0	85.07559343634298	4.976677560153525	0	0
0.77	-10.88355183417651	32.01130074589724	-67.53567119304394	0	0.9399999998679526	0	43.60818196001973	-10.5080616506147	0	58.14736104740165	1.014862901623057	-5.224663697671729	0	0	43.60818196001973	-10.5080616506147	0	58.14736104740165	1.014862901623057	-5.224663697671729	0	0	73.94261289940427	-9.562836101770538	-18.26485015753891	-46.11859322473012	-7.223124204803505	3.051396052980902	3.20954327088387	4.975300089275115	0	0	0	-10.18820913170747	0	85.07695631029722	4.975300089275115	0	0
0.78	-10.77494527180452	32.9059995426457	-67.71232556064611	0	0.9399999998679526	0	43.6086115642548	-10.50752585757169	0	58.14781790396447	1.014870875274288	-5.224356058429959	0	0	43.6086115642548	-10.50752585757169	0	58.14781790396447	1.014870875274288	-5.224356058429959	0	0	75.68138418723522	-9.709313950326237	-17.63936748124685	-47.34962808006487	-7.229631858083611	2.67739472087981	3.362811500684573	4.974221738111758	0	0	0	-10.18898013607978	0	85.07802323529671	4.974221738111758	0	0
0.79	-10.80940447292167	33.73308415074811	-67.6929559056606	0	0.9399999998679526	0	43.6090413452559	-10.50698682652831	0	58.14827291600371	1.014878816732509	-5.224046230352407	0	0	43.6090413452559	-10.50698682652831	0	58.14827291600371	1.014878816732509	-5.224046230352407	0	0	77.25745938252018	-9.87656676426443	-17.23246788144716	-48.22895160882896	-7.342991830966503	2.298309701538054	3.439498063809908	4.973144745717399	0	0	0	-10.18974906762887	0	85.07908881532393	4.973144745717399	0	0
0.8	-10.77874268375809	34.41902345644873	-67.88178424910946	0	0.9399999998679526	0	43.60949805486306	-10.50640845747087	0	58.14875235875972	1.014887184587176	-5.223713253854319	0	0	43.60949805486306	-10.50640845747087	0	58.14875235875972	1.014887184587176	-5.223713253854319	0	0	78.67891731926173	-9.870174380187791	-16.78728085470192	-48.69070372748146	-7.311468497439234	2.051821517345322	2.979784614304997	4.972003874559313	0	0	0	-10.19056134958522	0	85.08021759598955	4.972003874559313	0	0
0.8100000000000001	-10.67343113739454	35.19670384865108	-67.9470956797057	0	0.9399999998679526	0	43.60996933202131	-10.50581988922202	0	58.14925236423822	1.014895911329054	-5.223375364900074	0	0	43.60996933202131	-10.50581988922202	0	58.14925236423822	1.014895911329054	-5.223375364900074	0	0	80.12966861872955	-9.994035386668859	-16.21822782532087	-49.15448531263564	-7.17746581514304	1.743476899967824	2.541004988970331	4.97082176032015	0	0	0	-10.19140599095418	0	85.08138718434292	4.97082176032015	0	0
0.82	-10.68138354417847	35.88754596172927	-68.0740213700112	0	0.9399999998679526	0	43.61045907116545	-10.50519956910167	0	58.14976583719377	1.014904873122748	-5.223018349685517	0	0	43.61045907116545	-10.50519956910167	0	58.14976583719377	1.014904873122748	-5.223018349685517	0	0	81.57218573486746	-10.01711414317447	-15.79023904427587	-49.59753193875769	-7.100903920296583	1.463595047910752	1.960488629601455	4.969598792437299	0	0	0	-10.19227643293773	0	85.08259719158701	4.969598792437299	0	0
0.83	-10.48663270325947	36.36506375213605	-68.26483542925985	0	0.9399999998679526	0	43.61115496882625	-10.50431538749714	0	58.15049286980324	1.014917562235553	-5.222509341788344	0	0	43.61115496882625	-10.50431538749714	0	58.15049286980324	1.014917562235553	-5.222509341788344	0	0	82.78611954309206	-10.09143299414978	-15.28769341978137	-50.07520405161484	-6.991972924581775	1.202939863492039	1.408219462304197	4.967863164218806	0	0	0	-10.1935103580565	0	85.08431442541826	4.967863164218806	0	0
0.84	-10.47286119306134	36.35930856042338	-68.35480144898371	0	0.9399999998679526	0	43.61145287350296	-10.50393797220946	0	58.15080450580459	1.014923001309844	-5.222292261022178	0	0	43.61145287350296	-10.50393797220946	0	58.15080450580459	1.014923001309844	-5.222292261022178	0	0	83.51804549269553	-10.06641791832756	-15.16596538086745	-50.49020791139449	-6.935174776117057	0.9259792966651051	0.8708662251999283	4.967119722020801	0	0	0	-10.19403914528007	0	85.0850499886846	4.967119722020801	0	0
0.85	-10.35744719314781	36.97085692627891	-68.46395860786062	0	0.9399999998679526	0	43.61197582053367	-10.50328360348947	0	58.15135699907731	1.014932644136548	-5.221916784262493	0	0	43.61197582053367	-10.50328360348947	0	58.15135699907731	1.014932644136548	-5.221916784262493	0	0	84.9995088858215	-10.15653290109428	-14.63944656483206	-51.24585118548853	-6.773213710087838	0.6812822230505162	0.3510397562465026	4.965809694448605	0	0	0	-10.19497403046368	0	85.08634613444103	4.965809694448605	0	0
